<?xml version="1.0" standalone="no"?>
<!DOCTYPE svg PUBLIC "-//W3C//DTD SVG 20010904//EN"
 "http://www.w3.org/TR/2001/REC-SVG-20010904/DTD/svg10.dtd">
<svg version="1.0" xmlns="http://www.w3.org/2000/svg"
 width="1080.000000pt" height="1080.000000pt" viewBox="0 0 1080.000000 1080.000000"
 preserveAspectRatio="xMidYMid meet">

<g transform="translate(0.000000,1080.000000) scale(0.100000,-0.100000)"
fill="#000000" stroke="none">
<path d="M0 5400 l0 -5400 5400 0 5400 0 0 5400 0 5400 -5400 0 -5400 0 0
-5400z m8133 3209 c12 -6 33 -21 45 -33 52 -47 52 -46 52 -652 l0 -564 -2830
0 -2830 0 0 564 c0 606 0 605 52 652 12 12 32 26 43 32 29 16 5437 17 5468 1z
m-1891 -3186 l3 -1598 125 -3 c69 -1 135 0 148 3 l22 5 0 1593 0 1592 845 3
845 2 0 -2354 c0 -2544 3 -2392 -52 -2442 -12 -12 -33 -27 -45 -33 -16 -8
-503 -11 -1802 -11 l-1781 0 0 1605 0 1605 -22 5 c-13 3 -79 4 -148 3 l-125
-3 -3 -1607 -2 -1608 -781 0 c-558 0 -787 3 -802 11 -12 6 -33 21 -45 33 -55
50 -52 -102 -52 2442 l0 2354 1835 0 1835 0 2 -1597z"/>
</g>
</svg>
